<?xml version="1.0" standalone="no"?><!DOCTYPE svg PUBLIC "-//W3C//DTD SVG 1.1//EN" "http://www.w3.org/Graphics/SVG/1.1/DTD/svg11.dtd"><svg class="icon" width="200px" height="200.00px" viewBox="0 0 1024 1024" version="1.1" xmlns="http://www.w3.org/2000/svg"><path d="M757.94318222 927.06702222c-11.42328889 0-23.42912-3.79790222-35.70346667-11.28903111l-185.17902222-113.10648889c-5.97105778-3.6352-15.33724445-5.80835555-25.06069333-5.80835555s-19.09532445 2.17315555-25.06638222 5.81973333l-185.16764445 113.09511111c-12.27434667 7.49112889-24.28586667 11.28903111-35.70915555 11.28903111-14.40654222 0-27.60704-6.25095111-36.21660445-17.14403555-7.24764445-9.18641778-14.55786667-25.72515555-8.20337778-52.35256889l50.34439112-211.04981333c3.44291555-14.42929778-4.23480889-38.04046222-15.50222222-47.66947556L91.70716445 457.66656c-29.10890667-24.93326222-25.07207111-49.71406222-21.98528-59.20995555s14.38947555-31.91694222 52.59264-34.98211556l216.29724444-17.34200889c14.77404445-1.19466667 34.85923555-15.78097778 40.5504-29.45934222L462.49528889 116.3264c14.71488-35.38944 39.5264-39.21009778 49.51608889-39.21009778 9.98513778 0 34.80120889 3.82065778 49.52177777 39.21578667l83.32743112 200.34218666c5.68547555 13.68405333 25.76611555 28.27719111 40.54471111 29.46503112l216.29155555 17.34314666c38.23274667 3.06403555 49.52291555 25.48622222 52.59832889 34.97528889 3.08110222 9.49589333 7.11907555 34.27669333-21.98528 59.21564445l-164.78435555 141.16181333c-11.26513778 9.64039111-18.93717333 33.25724445-15.49539556 47.67516445l50.35576889 211.05436444c6.36017778 26.63424-0.95573333 43.17297778-8.20792889 52.34801778-8.62208 10.90446222-21.82826667 17.15541333-36.23480889 17.15541333z" fill="#d81e06" /></svg>